<svg width="35" height="28" viewBox="0 0 35 28" fill="none" xmlns="http://www.w3.org/2000/svg">
<path d="M7.00879 20.9707C6.66283 21.301 6.22416 21.4824 5.77148 21.4824H0L7.0918 14.6748C7.43826 14.3422 7.87767 14.1593 8.33203 14.1592H8.37207C7.91958 14.1591 7.48159 13.9704 7.13574 13.626L0 6.5166H5.77051C6.22385 6.51661 6.66262 6.70615 7.00879 7.05176L14.127 14.1592H14.1436L7.00879 20.9707Z" fill="#1A1A40"/>
<path d="M26.3721 4.9209C26.3721 5.51995 26.0828 6.08893 25.5811 6.47656L17.127 13.0059L9.35938 6.47656C8.89837 6.08893 8.63282 5.51996 8.63281 4.9209V0L16.4004 6.5293C16.8614 6.91692 17.1269 7.48594 17.127 8.08496C17.127 7.48588 17.4161 6.91692 17.918 6.5293L26.3721 0V4.9209Z" fill="#1A1A40"/>
<path d="M25.5811 21.5459C26.0828 21.9321 26.3721 22.4997 26.3721 23.0967V28L17.918 21.4932C17.4162 21.107 17.127 20.5402 17.127 19.9434C17.1269 20.5402 16.8613 21.107 16.4004 21.4932L8.63281 28V23.0967C8.63281 22.4997 8.89832 21.9321 9.35938 21.5459L17.127 15.04L25.5811 21.5459Z" fill="#1A1A40"/>
<path d="M20.8555 14.1592H20.875L27.9932 7.05176C28.3393 6.70617 28.7781 6.5166 29.2314 6.5166H35.002L27.8662 13.626C27.5204 13.9704 27.0823 14.1591 26.6299 14.1592H26.667C27.1215 14.1592 27.5616 14.3438 27.9082 14.6797L35 21.5508H29.2275C28.775 21.5507 28.3371 21.3683 27.9912 21.0352L20.8555 14.1592Z" fill="#1A1A40"/>
</svg>
