<svg width="16" height="15" viewBox="0 0 16 15" fill="none" xmlns="http://www.w3.org/2000/svg">
<path d="M7.13574 0.792969C7.43521 -0.128035 8.73862 -0.128035 9.03809 0.792969L10.1074 4.08496C10.2413 4.49698 10.6254 4.77637 11.0586 4.77637H14.5195C15.4883 4.77637 15.8911 6.01556 15.1074 6.58496L12.3076 8.61914C11.9572 8.87375 11.8105 9.32532 11.9443 9.7373L13.0137 13.0293C13.313 13.9506 12.2583 14.7169 11.4746 14.1475L8.6748 12.1133C8.32432 11.8586 7.84951 11.8586 7.49902 12.1133L4.69922 14.1475C3.91551 14.7169 2.8608 13.9506 3.16016 13.0293L4.22949 9.7373C4.36328 9.32532 4.21666 8.87375 3.86621 8.61914L1.06641 6.58496C0.282693 6.01556 0.685574 4.77637 1.6543 4.77637H5.11523C5.54846 4.77637 5.93253 4.49698 6.06641 4.08496L7.13574 0.792969Z" fill="#FACC15"/>
<path d="M7.13574 0.792969C7.43521 -0.128035 8.73862 -0.128035 9.03809 0.792969L10.1074 4.08496C10.2413 4.49698 10.6254 4.77637 11.0586 4.77637H14.5195C15.4883 4.77637 15.8911 6.01556 15.1074 6.58496L12.3076 8.61914C11.9572 8.87375 11.8105 9.32532 11.9443 9.7373L13.0137 13.0293C13.313 13.9506 12.2583 14.7169 11.4746 14.1475L8.6748 12.1133C8.32432 11.8586 7.84951 11.8586 7.49902 12.1133L4.69922 14.1475C3.91551 14.7169 2.8608 13.9506 3.16016 13.0293L4.22949 9.7373C4.36328 9.32532 4.21666 8.87375 3.86621 8.61914L1.06641 6.58496C0.282693 6.01556 0.685574 4.77637 1.6543 4.77637H5.11523C5.54846 4.77637 5.93253 4.49698 6.06641 4.08496L7.13574 0.792969Z" stroke="#FACC15"/>
</svg>
