<svg width="194" height="44" viewBox="0 0 194 44" fill="none" xmlns="http://www.w3.org/2000/svg">
<path d="M44.016 32.0276V12.3436H47.824V32.0276H44.016ZM60.5717 32.0276V24.2716C60.5717 23.469 60.3197 22.8156 59.8157 22.3116C59.3117 21.8076 58.6583 21.5556 57.8557 21.5556C57.333 21.5556 56.8663 21.6676 56.4557 21.8916C56.045 22.1156 55.7183 22.433 55.4757 22.8436C55.2517 23.2543 55.1397 23.7303 55.1397 24.2716L53.7117 23.5436C53.7117 22.4796 53.9357 21.5556 54.3837 20.7716C54.8503 19.969 55.485 19.3436 56.2877 18.8956C57.109 18.4476 58.033 18.2236 59.0597 18.2236C60.049 18.2236 60.9357 18.4756 61.7197 18.9796C62.5037 19.465 63.1197 20.109 63.5677 20.9116C64.0157 21.6956 64.2397 22.545 64.2397 23.4596V32.0276H60.5717ZM51.4717 32.0276V18.5036H55.1397V32.0276H51.4717ZM75.8183 32.0276L70.5823 25.0556L75.7903 18.5036H80.0183L73.9143 25.8956L74.0543 24.1036L80.2983 32.0276H75.8183ZM67.1943 32.0276V11.7836H70.8623V32.0276H67.1943ZM85.6177 32.0276L79.6537 18.5036H83.6857L87.9697 29.6476H85.9817L90.2937 18.5036H94.1857L88.2497 32.0276H85.6177ZM95.8779 32.0276V18.5036H99.5739V32.0276H95.8779ZM97.7259 16.3196C97.1286 16.3196 96.6339 16.1236 96.2419 15.7316C95.8499 15.321 95.6539 14.817 95.6539 14.2196C95.6539 13.641 95.8499 13.1463 96.2419 12.7356C96.6339 12.325 97.1286 12.1196 97.7259 12.1196C98.3419 12.1196 98.8366 12.325 99.2099 12.7356C99.6019 13.1463 99.7979 13.641 99.7979 14.2196C99.7979 14.817 99.6019 15.321 99.2099 15.7316C98.8366 16.1236 98.3419 16.3196 97.7259 16.3196ZM109.179 32.3076C107.817 32.3076 106.585 31.9996 105.483 31.3836C104.401 30.749 103.533 29.8996 102.879 28.8356C102.245 27.753 101.927 26.549 101.927 25.2236C101.927 23.8983 102.245 22.713 102.879 21.6676C103.514 20.6036 104.382 19.7636 105.483 19.1476C106.585 18.513 107.807 18.1956 109.151 18.1956C110.533 18.1956 111.765 18.513 112.847 19.1476C113.949 19.7636 114.817 20.6036 115.451 21.6676C116.086 22.713 116.403 23.8983 116.403 25.2236C116.403 26.549 116.086 27.753 115.451 28.8356C114.817 29.8996 113.949 30.749 112.847 31.3836C111.765 31.9996 110.542 32.3076 109.179 32.3076ZM109.151 28.8916C109.842 28.8916 110.449 28.7423 110.971 28.4436C111.513 28.1263 111.923 27.697 112.203 27.1556C112.502 26.5956 112.651 25.961 112.651 25.2516C112.651 24.5423 112.502 23.917 112.203 23.3756C111.905 22.8343 111.494 22.4143 110.971 22.1156C110.449 21.7983 109.842 21.6396 109.151 21.6396C108.479 21.6396 107.882 21.7983 107.359 22.1156C106.837 22.4143 106.426 22.8343 106.127 23.3756C105.829 23.917 105.679 24.5423 105.679 25.2516C105.679 25.961 105.829 26.5956 106.127 27.1556C106.426 27.697 106.837 28.1263 107.359 28.4436C107.882 28.7423 108.479 28.8916 109.151 28.8916ZM120.874 32.3076C120.202 32.3076 119.652 32.0836 119.222 31.6356C118.793 31.1876 118.578 30.637 118.578 29.9836C118.578 29.3303 118.793 28.7796 119.222 28.3316C119.652 27.8836 120.202 27.6596 120.874 27.6596C121.528 27.6596 122.069 27.8836 122.498 28.3316C122.928 28.7796 123.142 29.3303 123.142 29.9836C123.142 30.637 122.928 31.1876 122.498 31.6356C122.069 32.0836 121.528 32.3076 120.874 32.3076ZM131.858 32.3076C130.626 32.3076 129.515 31.9996 128.526 31.3836C127.537 30.7676 126.762 29.9276 126.202 28.8636C125.642 27.7996 125.362 26.605 125.362 25.2796C125.362 23.9356 125.642 22.7316 126.202 21.6676C126.762 20.6036 127.537 19.7636 128.526 19.1476C129.515 18.5316 130.626 18.2236 131.858 18.2236C132.829 18.2236 133.697 18.4196 134.462 18.8116C135.227 19.2036 135.834 19.7543 136.282 20.4636C136.749 21.1543 137.001 21.9383 137.038 22.8156V27.6876C137.001 28.5836 136.749 29.377 136.282 30.0676C135.834 30.7583 135.227 31.309 134.462 31.7196C133.697 32.1116 132.829 32.3076 131.858 32.3076ZM132.53 28.9196C133.557 28.9196 134.387 28.5836 135.022 27.9116C135.657 27.221 135.974 26.3343 135.974 25.2516C135.974 24.5423 135.825 23.917 135.526 23.3756C135.246 22.8156 134.845 22.3863 134.322 22.0876C133.818 21.7703 133.221 21.6116 132.53 21.6116C131.858 21.6116 131.261 21.7703 130.738 22.0876C130.234 22.3863 129.833 22.8156 129.534 23.3756C129.254 23.917 129.114 24.5423 129.114 25.2516C129.114 25.9796 129.254 26.6236 129.534 27.1836C129.833 27.725 130.234 28.1543 130.738 28.4716C131.261 28.7703 131.858 28.9196 132.53 28.9196ZM135.778 32.0276V28.3876L136.366 25.0836L135.778 21.8356V18.5036H139.418V32.0276H135.778ZM142.663 32.0276V18.5036H146.359V32.0276H142.663ZM144.511 16.3196C143.914 16.3196 143.419 16.1236 143.027 15.7316C142.635 15.321 142.439 14.817 142.439 14.2196C142.439 13.641 142.635 13.1463 143.027 12.7356C143.419 12.325 143.914 12.1196 144.511 12.1196C145.127 12.1196 145.622 12.325 145.995 12.7356C146.387 13.1463 146.583 13.641 146.583 14.2196C146.583 14.817 146.387 15.321 145.995 15.7316C145.622 16.1236 145.127 16.3196 144.511 16.3196Z" fill="#1A1A40"/>
<path d="M7.00879 29.0986C6.66283 29.43 6.22416 29.6113 5.77148 29.6113H0L7.0918 22.7803C7.43823 22.4467 7.87776 22.2638 8.33203 22.2637H8.37207C7.91945 22.2636 7.48163 22.0734 7.13574 21.7275L0 14.5947H5.77051C6.2239 14.5947 6.66261 14.785 7.00879 15.1318L14.127 22.2637H14.1436L7.00879 29.0986Z" fill="#1A1A40"/>
<path d="M26.3721 12.9932C26.3721 13.5942 26.0826 14.1647 25.5811 14.5537L17.127 21.1064L9.35938 14.5537C8.89852 14.1647 8.63281 13.5942 8.63281 12.9932V8.05566L16.4004 14.6074C16.8613 14.9963 17.1269 15.567 17.127 16.168C17.127 15.5669 17.4163 14.9963 17.918 14.6074L26.3721 8.05566V12.9932Z" fill="#1A1A40"/>
<path d="M25.5811 29.6758C26.0828 30.0634 26.3721 30.6325 26.3721 31.2314V36.1523L17.918 29.623C17.4161 29.2355 17.127 28.6665 17.127 28.0674C17.127 28.6664 16.8614 29.2355 16.4004 29.623L8.63281 36.1523V31.2314C8.63281 30.6324 8.89837 30.0634 9.35938 29.6758L17.127 23.1465L25.5811 29.6758Z" fill="#1A1A40"/>
<path d="M20.8555 22.2637H20.875L27.9932 15.1318C28.3393 14.785 28.7781 14.5947 29.2314 14.5947H35.002L27.8662 21.7275C27.5203 22.0733 27.0824 22.2636 26.6299 22.2637H26.667C27.1215 22.2637 27.5616 22.4482 27.9082 22.7852L35 29.6807H29.2275C28.775 29.6806 28.3371 29.4974 27.9912 29.1631L20.8555 22.2637Z" fill="#1A1A40"/>
</svg>
