<svg width="194" height="43" viewBox="0 0 194 43" fill="none" xmlns="http://www.w3.org/2000/svg">
<path d="M44.016 32V12.316H47.824V32H44.016ZM60.5717 32V24.244C60.5717 23.4413 60.3197 22.788 59.8157 22.284C59.3117 21.78 58.6583 21.528 57.8557 21.528C57.333 21.528 56.8663 21.64 56.4557 21.864C56.045 22.088 55.7183 22.4053 55.4757 22.816C55.2517 23.2267 55.1397 23.7027 55.1397 24.244L53.7117 23.516C53.7117 22.452 53.9357 21.528 54.3837 20.744C54.8503 19.9413 55.485 19.316 56.2877 18.868C57.109 18.42 58.033 18.196 59.0597 18.196C60.049 18.196 60.9357 18.448 61.7197 18.952C62.5037 19.4373 63.1197 20.0813 63.5677 20.884C64.0157 21.668 64.2397 22.5173 64.2397 23.432V32H60.5717ZM51.4717 32V18.476H55.1397V32H51.4717ZM75.8183 32L70.5823 25.028L75.7903 18.476H80.0183L73.9143 25.868L74.0543 24.076L80.2983 32H75.8183ZM67.1943 32V11.756H70.8623V32H67.1943ZM88.6793 32L80.9233 12.316H85.0393L91.0313 28.248H89.4353L95.4833 12.316H99.5433L91.7033 32H88.6793ZM101.729 32V18.476H105.425V32H101.729ZM103.577 16.292C102.98 16.292 102.485 16.096 102.093 15.704C101.701 15.2933 101.505 14.7893 101.505 14.192C101.505 13.6133 101.701 13.1187 102.093 12.708C102.485 12.2973 102.98 12.092 103.577 12.092C104.193 12.092 104.688 12.2973 105.061 12.708C105.453 13.1187 105.649 13.6133 105.649 14.192C105.649 14.7893 105.453 15.2933 105.061 15.704C104.688 16.096 104.193 16.292 103.577 16.292ZM113.323 32.308C112.557 32.308 111.801 32.2053 111.055 32C110.327 31.7947 109.655 31.5147 109.039 31.16C108.423 30.7867 107.891 30.3387 107.443 29.816L109.627 27.604C110.093 28.1267 110.635 28.5187 111.251 28.78C111.867 29.0413 112.548 29.172 113.295 29.172C113.892 29.172 114.34 29.088 114.639 28.92C114.956 28.752 115.115 28.5 115.115 28.164C115.115 27.7907 114.947 27.5013 114.611 27.296C114.293 27.0907 113.873 26.9227 113.351 26.792C112.828 26.6427 112.277 26.484 111.699 26.316C111.139 26.1293 110.597 25.896 110.075 25.616C109.552 25.3173 109.123 24.916 108.787 24.412C108.469 23.8893 108.311 23.2173 108.311 22.396C108.311 21.5373 108.516 20.7907 108.927 20.156C109.356 19.5213 109.963 19.0267 110.747 18.672C111.531 18.3173 112.455 18.14 113.519 18.14C114.639 18.14 115.647 18.336 116.543 18.728C117.457 19.12 118.213 19.708 118.811 20.492L116.599 22.704C116.188 22.2 115.721 21.836 115.199 21.612C114.695 21.388 114.144 21.276 113.547 21.276C113.005 21.276 112.585 21.36 112.287 21.528C112.007 21.696 111.867 21.9293 111.867 22.228C111.867 22.564 112.025 22.8253 112.343 23.012C112.679 23.1987 113.108 23.3667 113.631 23.516C114.153 23.6467 114.695 23.8053 115.255 23.992C115.833 24.16 116.375 24.4027 116.879 24.72C117.401 25.0373 117.821 25.4573 118.139 25.98C118.475 26.5027 118.643 27.1747 118.643 27.996C118.643 29.3213 118.167 30.376 117.215 31.16C116.263 31.9253 114.965 32.308 113.323 32.308ZM121.116 32V18.476H124.812V32H121.116ZM122.964 16.292C122.367 16.292 121.872 16.096 121.48 15.704C121.088 15.2933 120.892 14.7893 120.892 14.192C120.892 13.6133 121.088 13.1187 121.48 12.708C121.872 12.2973 122.367 12.092 122.964 12.092C123.58 12.092 124.075 12.2973 124.448 12.708C124.84 13.1187 125.036 13.6133 125.036 14.192C125.036 14.7893 124.84 15.2933 124.448 15.704C124.075 16.096 123.58 16.292 122.964 16.292ZM134.418 32.28C133.055 32.28 131.823 31.972 130.722 31.356C129.639 30.7213 128.771 29.872 128.118 28.808C127.483 27.7253 127.166 26.5213 127.166 25.196C127.166 23.8707 127.483 22.6853 128.118 21.64C128.752 20.576 129.62 19.736 130.722 19.12C131.823 18.4853 133.046 18.168 134.39 18.168C135.771 18.168 137.003 18.4853 138.086 19.12C139.187 19.736 140.055 20.576 140.69 21.64C141.324 22.6853 141.642 23.8707 141.642 25.196C141.642 26.5213 141.324 27.7253 140.69 28.808C140.055 29.872 139.187 30.7213 138.086 31.356C137.003 31.972 135.78 32.28 134.418 32.28ZM134.39 28.864C135.08 28.864 135.687 28.7147 136.21 28.416C136.751 28.0987 137.162 27.6693 137.442 27.128C137.74 26.568 137.89 25.9333 137.89 25.224C137.89 24.5147 137.74 23.8893 137.442 23.348C137.143 22.8067 136.732 22.3867 136.21 22.088C135.687 21.7707 135.08 21.612 134.39 21.612C133.718 21.612 133.12 21.7707 132.598 22.088C132.075 22.3867 131.664 22.8067 131.366 23.348C131.067 23.8893 130.918 24.5147 130.918 25.224C130.918 25.9333 131.067 26.568 131.366 27.128C131.664 27.6693 132.075 28.0987 132.598 28.416C133.12 28.7147 133.718 28.864 134.39 28.864ZM153.103 32V24.244C153.103 23.4413 152.851 22.788 152.347 22.284C151.843 21.78 151.19 21.528 150.387 21.528C149.864 21.528 149.398 21.64 148.987 21.864C148.576 22.088 148.25 22.4053 148.007 22.816C147.783 23.2267 147.671 23.7027 147.671 24.244L146.243 23.516C146.243 22.452 146.467 21.528 146.915 20.744C147.382 19.9413 148.016 19.316 148.819 18.868C149.64 18.42 150.564 18.196 151.591 18.196C152.58 18.196 153.467 18.448 154.251 18.952C155.035 19.4373 155.651 20.0813 156.099 20.884C156.547 21.668 156.771 22.5173 156.771 23.432V32H153.103ZM144.003 32V18.476H147.671V32H144.003ZM162.246 32.28C161.574 32.28 161.023 32.056 160.594 31.608C160.164 31.16 159.95 30.6093 159.95 29.956C159.95 29.3027 160.164 28.752 160.594 28.304C161.023 27.856 161.574 27.632 162.246 27.632C162.899 27.632 163.44 27.856 163.87 28.304C164.299 28.752 164.514 29.3027 164.514 29.956C164.514 30.6093 164.299 31.16 163.87 31.608C163.44 32.056 162.899 32.28 162.246 32.28ZM173.229 32.28C171.997 32.28 170.887 31.972 169.897 31.356C168.908 30.74 168.133 29.9 167.573 28.836C167.013 27.772 166.733 26.5773 166.733 25.252C166.733 23.908 167.013 22.704 167.573 21.64C168.133 20.576 168.908 19.736 169.897 19.12C170.887 18.504 171.997 18.196 173.229 18.196C174.2 18.196 175.068 18.392 175.833 18.784C176.599 19.176 177.205 19.7267 177.653 20.436C178.12 21.1267 178.372 21.9107 178.409 22.788V27.66C178.372 28.556 178.12 29.3493 177.653 30.04C177.205 30.7307 176.599 31.2813 175.833 31.692C175.068 32.084 174.2 32.28 173.229 32.28ZM173.901 28.892C174.928 28.892 175.759 28.556 176.393 27.884C177.028 27.1933 177.345 26.3067 177.345 25.224C177.345 24.5147 177.196 23.8893 176.897 23.348C176.617 22.788 176.216 22.3587 175.693 22.06C175.189 21.7427 174.592 21.584 173.901 21.584C173.229 21.584 172.632 21.7427 172.109 22.06C171.605 22.3587 171.204 22.788 170.905 23.348C170.625 23.8893 170.485 24.5147 170.485 25.224C170.485 25.952 170.625 26.596 170.905 27.156C171.204 27.6973 171.605 28.1267 172.109 28.444C172.632 28.7427 173.229 28.892 173.901 28.892ZM177.149 32V28.36L177.737 25.056L177.149 21.808V18.476H180.789V32H177.149ZM184.034 32V18.476H187.73V32H184.034ZM185.882 16.292C185.285 16.292 184.79 16.096 184.398 15.704C184.006 15.2933 183.81 14.7893 183.81 14.192C183.81 13.6133 184.006 13.1187 184.398 12.708C184.79 12.2973 185.285 12.092 185.882 12.092C186.498 12.092 186.993 12.2973 187.366 12.708C187.758 13.1187 187.954 13.6133 187.954 14.192C187.954 14.7893 187.758 15.2933 187.366 15.704C186.993 16.096 186.498 16.292 185.882 16.292Z" fill="#1A1A40"/>
<path d="M7.00879 28.9707C6.66283 29.301 6.22416 29.4824 5.77148 29.4824H0L7.0918 22.6748C7.43826 22.3422 7.87767 22.1593 8.33203 22.1592H8.37207C7.91958 22.1591 7.48159 21.9704 7.13574 21.626L0 14.5166H5.77051C6.22385 14.5166 6.66262 14.7062 7.00879 15.0518L14.127 22.1592H14.1436L7.00879 28.9707Z" fill="#1A1A40"/>
<path d="M26.3721 12.9209C26.3721 13.52 26.0828 14.0889 25.5811 14.4766L17.127 21.0059L9.35938 14.4766C8.89837 14.0889 8.63282 13.52 8.63281 12.9209V8L16.4004 14.5293C16.8614 14.9169 17.1269 15.4859 17.127 16.085C17.127 15.4859 17.4161 14.9169 17.918 14.5293L26.3721 8V12.9209Z" fill="#1A1A40"/>
<path d="M25.5811 29.5459C26.0828 29.9321 26.3721 30.4997 26.3721 31.0967V36L17.918 29.4932C17.4162 29.107 17.127 28.5402 17.127 27.9434C17.1269 28.5402 16.8613 29.107 16.4004 29.4932L8.63281 36V31.0967C8.63281 30.4997 8.89832 29.9321 9.35938 29.5459L17.127 23.04L25.5811 29.5459Z" fill="#1A1A40"/>
<path d="M20.8555 22.1592H20.875L27.9932 15.0518C28.3393 14.7062 28.7781 14.5166 29.2314 14.5166H35.002L27.8662 21.626C27.5204 21.9704 27.0823 22.1591 26.6299 22.1592H26.667C27.1215 22.1592 27.5616 22.3438 27.9082 22.6797L35 29.5508H29.2275C28.775 29.5507 28.3371 29.3683 27.9912 29.0352L20.8555 22.1592Z" fill="#1A1A40"/>
</svg>
