<svg width="16" height="15" viewBox="0 0 16 15" fill="none" xmlns="http://www.w3.org/2000/svg">
<path d="M7.13586 0.793261C7.43521 -0.12805 8.73862 -0.128049 9.03797 0.793261L10.1075 4.08506C10.2414 4.49708 10.6254 4.77604 11.0586 4.77604H14.5198C15.4885 4.77604 15.8913 6.01566 15.1076 6.58506L12.3074 8.6195C11.9569 8.87414 11.8103 9.32551 11.9441 9.73753L13.0137 13.0293C13.3131 13.9506 12.2586 14.7168 11.4749 14.1474L8.6747 12.1129C8.32421 11.8583 7.84962 11.8583 7.49913 12.1129L4.69896 14.1474C3.91525 14.7168 2.86077 13.9506 3.16012 13.0293L4.22969 9.73753C4.36356 9.32551 4.2169 8.87414 3.86642 8.6195L1.06625 6.58506C0.282533 6.01566 0.685309 4.77604 1.65403 4.77604H5.11523C5.54846 4.77604 5.93241 4.49708 6.06629 4.08506L7.13586 0.793261Z" fill="#FACC15"/>
</svg>
