<svg width="93" height="20" viewBox="0 0 93 20" fill="none" xmlns="http://www.w3.org/2000/svg">
<path d="M9.79883 2.92584C10.0983 2.00484 11.4017 2.00484 11.7012 2.92584L12.7705 6.21783C12.9044 6.62986 13.2885 6.90924 13.7217 6.90924H17.1826C18.1513 6.90924 18.5542 8.14843 17.7705 8.71783L14.9707 10.752C14.6203 11.0066 14.4736 11.4582 14.6074 11.8702L15.6768 15.1622C15.9761 16.0835 14.9214 16.8497 14.1377 16.2803L11.3379 14.2462C10.9874 13.9915 10.5126 13.9915 10.1621 14.2462L7.3623 16.2803C6.57859 16.8497 5.52389 16.0835 5.82324 15.1622L6.89258 11.8702C7.02637 11.4582 6.87974 11.0066 6.5293 10.752L3.72949 8.71783C2.94578 8.14843 3.34866 6.90924 4.31738 6.90924H7.77832C8.21155 6.90924 8.59562 6.62986 8.72949 6.21783L9.79883 2.92584Z" fill="#FACC15"/>
<path d="M9.79883 2.92584C10.0983 2.00484 11.4017 2.00484 11.7012 2.92584L12.7705 6.21783C12.9044 6.62986 13.2885 6.90924 13.7217 6.90924H17.1826C18.1513 6.90924 18.5542 8.14843 17.7705 8.71783L14.9707 10.752C14.6203 11.0066 14.4736 11.4582 14.6074 11.8702L15.6768 15.1622C15.9761 16.0835 14.9214 16.8497 14.1377 16.2803L11.3379 14.2462C10.9874 13.9915 10.5126 13.9915 10.1621 14.2462L7.3623 16.2803C6.57859 16.8497 5.52389 16.0835 5.82324 15.1622L6.89258 11.8702C7.02637 11.4582 6.87974 11.0066 6.5293 10.752L3.72949 8.71783C2.94578 8.14843 3.34866 6.90924 4.31738 6.90924H7.77832C8.21155 6.90924 8.59562 6.62986 8.72949 6.21783L9.79883 2.92584Z" stroke="#FACC15"/>
<path d="M27.7989 2.92613C28.0983 2.00482 29.4017 2.00482 29.7011 2.92613L30.7706 6.21793C30.9045 6.62995 31.2885 6.90891 31.7217 6.90891H35.1829C36.1516 6.90891 36.5544 8.14853 35.7707 8.71793L32.9705 10.7524C32.62 11.007 32.4734 11.4584 32.6072 11.8704L33.6768 15.1622C33.9761 16.0835 32.9217 16.8496 32.138 16.2802L29.3378 14.2458C28.9873 13.9912 28.5127 13.9912 28.1622 14.2458L25.362 16.2802C24.5783 16.8496 23.5239 16.0835 23.8232 15.1622L24.8928 11.8704C25.0266 11.4584 24.88 11.007 24.5295 10.7524L21.7293 8.71793C20.9456 8.14853 21.3484 6.90891 22.3171 6.90891H25.7783C26.2115 6.90891 26.5955 6.62995 26.7294 6.21793L27.7989 2.92613Z" fill="#FACC15"/>
<path d="M45.7989 2.92613C46.0983 2.00482 47.4017 2.00482 47.7011 2.92613L48.7706 6.21793C48.9045 6.62995 49.2885 6.90891 49.7217 6.90891H53.1829C54.1516 6.90891 54.5544 8.14853 53.7707 8.71793L50.9705 10.7524C50.62 11.007 50.4734 11.4584 50.6072 11.8704L51.6768 15.1622C51.9761 16.0835 50.9217 16.8496 50.138 16.2802L47.3378 14.2458C46.9873 13.9912 46.5127 13.9912 46.1622 14.2458L43.362 16.2802C42.5783 16.8496 41.5239 16.0835 41.8232 15.1622L42.8928 11.8704C43.0266 11.4584 42.88 11.007 42.5295 10.7524L39.7293 8.71793C38.9456 8.14853 39.3484 6.90891 40.3171 6.90891H43.7783C44.2115 6.90891 44.5955 6.62995 44.7294 6.21793L45.7989 2.92613Z" fill="#FACC15"/>
<path d="M63.7989 2.92613C64.0983 2.00482 65.4017 2.00482 65.7011 2.92613L66.7706 6.21793C66.9045 6.62995 67.2885 6.90891 67.7217 6.90891H71.1829C72.1516 6.90891 72.5544 8.14853 71.7707 8.71793L68.9705 10.7524C68.62 11.007 68.4734 11.4584 68.6072 11.8704L69.6768 15.1622C69.9761 16.0835 68.9217 16.8496 68.138 16.2802L65.3378 14.2458C64.9873 13.9912 64.5127 13.9912 64.1622 14.2458L61.362 16.2802C60.5783 16.8496 59.5239 16.0835 59.8232 15.1622L60.8928 11.8704C61.0266 11.4584 60.88 11.007 60.5295 10.7524L57.7293 8.71793C56.9456 8.14853 57.3484 6.90891 58.3171 6.90891H61.7783C62.2115 6.90891 62.5955 6.62995 62.7294 6.21793L63.7989 2.92613Z" fill="#FACC15"/>
<path d="M81.7989 2.92613C82.0983 2.00482 83.4017 2.00482 83.7011 2.92613L84.7706 6.21793C84.9045 6.62995 85.2885 6.90891 85.7217 6.90891H89.1829C90.1516 6.90891 90.5544 8.14853 89.7707 8.71793L86.9705 10.7524C86.62 11.007 86.4734 11.4584 86.6072 11.8704L87.6768 15.1622C87.9761 16.0835 86.9217 16.8496 86.138 16.2802L83.3378 14.2458C82.9873 13.9912 82.5127 13.9912 82.1622 14.2458L79.362 16.2802C78.5783 16.8496 77.5239 16.0835 77.8232 15.1622L78.8928 11.8704C79.0266 11.4584 78.88 11.007 78.5295 10.7524L75.7293 8.71793C74.9456 8.14853 75.3484 6.90891 76.3171 6.90891H79.7783C80.2115 6.90891 80.5955 6.62995 80.7294 6.21793L81.7989 2.92613Z" fill="#FACC15"/>
</svg>
