<svg width="35" height="28" viewBox="0 0 35 28" fill="none" xmlns="http://www.w3.org/2000/svg">
<path d="M8.63281 0L16.4 6.52942C16.8611 6.91705 17.127 7.4859 17.127 8.08502V13.0059L9.35969 6.47652C8.89858 6.08888 8.63281 5.52002 8.63281 4.92088V0Z" fill="#1A1A40"/>
<path d="M8.63281 27.9999L16.4 21.4933C16.8611 21.1071 17.127 20.5402 17.127 19.9432V15.0396L9.35969 21.5461C8.89858 21.9323 8.63281 22.4992 8.63281 23.0962V27.9999Z" fill="#1A1A40"/>
<path d="M0 6.5166L7.13558 13.6256C7.48152 13.9702 7.91958 14.1593 8.37228 14.1593H14.1268L7.00881 7.05197C6.66261 6.70628 6.22387 6.5166 5.77046 6.5166H0Z" fill="#1A1A40"/>
<path d="M0 21.4821L7.09169 14.6746C7.43826 14.3419 7.87793 14.1593 8.33245 14.1593H14.144L7.00839 20.9707C6.66242 21.3009 6.22434 21.4821 5.77166 21.4821H0Z" fill="#1A1A40"/>
<path d="M26.3719 0L17.9181 6.52942C17.4162 6.91705 17.127 7.4859 17.127 8.08502V13.0059L25.5807 6.47652C26.0826 6.08888 26.3719 5.52002 26.3719 4.92088V0Z" fill="#1A1A40"/>
<path d="M26.3719 27.9999L17.9181 21.4933C17.4162 21.1071 17.127 20.5402 17.127 19.9432V15.0396L25.5807 21.5461C26.0826 21.9323 26.3719 22.4992 26.3719 23.0962V27.9999Z" fill="#1A1A40"/>
<path d="M35.0019 6.5166L27.8663 13.6256C27.5204 13.9702 27.0822 14.1593 26.6296 14.1593H20.875L27.9931 7.05197C28.3392 6.70628 28.778 6.5166 29.2314 6.5166H35.0019Z" fill="#1A1A40"/>
<path d="M34.9996 21.5512L27.9079 14.6795C27.5613 14.3436 27.1216 14.1593 26.667 14.1593H20.8556L27.9911 21.0349C28.3371 21.3683 28.7752 21.5512 29.2279 21.5512H34.9996Z" fill="#1A1A40"/>
</svg>
